<?xml version="1.0" standalone="no"?>
<!DOCTYPE svg PUBLIC "-//W3C//DTD SVG 20010904//EN"
 "http://www.w3.org/TR/2001/REC-SVG-20010904/DTD/svg10.dtd">
<svg version="1.0" xmlns="http://www.w3.org/2000/svg"
 width="272.000000pt" height="241.000000pt" viewBox="0 0 272.000000 241.000000"
 preserveAspectRatio="xMidYMid meet">
<metadata>
Created by potrace 1.16, written by Peter Selinger 2001-2019
</metadata>
<g transform="translate(0.000000,241.000000) scale(0.100000,-0.100000)"
fill="#000000" stroke="none">
<path d="M855 2394 c-16 -9 -55 -42 -86 -75 -64 -67 -93 -74 -170 -39 -107 48
-156 12 -205 -155 -25 -84 -85 -142 -179 -173 -81 -28 -112 -53 -121 -97 -9
-48 16 -95 95 -178 39 -41 71 -79 71 -85 0 -6 -17 -14 -37 -17 -133 -22 -177
-43 -188 -93 -9 -44 9 -77 90 -162 41 -43 75 -88 75 -98 0 -24 -46 -65 -112
-98 -108 -55 -118 -162 -20 -226 21 -14 67 -40 103 -58 125 -63 193 -116 327
-260 l132 -141 0 -179 c0 -176 0 -179 25 -209 74 -87 260 -58 410 64 28 24 66
46 83 49 16 4 79 36 139 72 98 59 216 112 286 129 46 12 74 -2 102 -49 34 -58
94 -112 159 -142 62 -29 91 -30 133 -4 30 18 53 66 53 113 0 21 4 21 81 -2 94
-29 150 -34 215 -21 173 34 263 120 208 198 -8 12 -42 40 -75 63 -40 27 -59
46 -57 57 2 9 35 40 73 69 114 85 130 145 58 224 l-35 39 39 0 c22 0 62 11 91
26 69 34 102 88 102 165 0 84 -30 118 -154 181 l-70 35 83 43 c89 47 118 81
106 129 -10 39 -41 68 -126 117 -91 53 -129 86 -129 113 0 11 10 39 22 62 59
113 17 278 -84 330 -42 22 -59 22 -188 3 -56 -7 -88 14 -120 81 -44 91 -124
98 -231 23 -106 -75 -166 -83 -281 -37 -65 25 -98 24 -142 -6 -25 -17 -59 -27
-114 -34 -105 -13 -118 -9 -126 41 -9 58 -38 108 -89 156 -76 69 -156 90 -222
56z m122 -85 c56 -27 90 -72 104 -139 24 -112 50 -125 218 -115 115 7 121 8
145 36 l25 28 70 -24 c75 -27 151 -32 213 -15 21 6 70 33 110 60 40 28 81 50
90 50 11 0 26 -17 39 -42 26 -52 55 -85 91 -104 31 -16 114 -18 176 -4 56 13
91 -2 115 -52 28 -58 25 -133 -8 -196 -50 -95 -15 -156 144 -252 50 -30 91
-60 91 -67 0 -8 -34 -30 -76 -50 -79 -38 -114 -71 -114 -107 0 -30 54 -78 122
-109 104 -47 130 -95 88 -164 -23 -39 -67 -53 -166 -53 -58 0 -74 -4 -89 -20
-28 -31 -12 -64 56 -115 80 -62 78 -81 -10 -144 -80 -58 -105 -90 -104 -137 1
-42 42 -91 110 -130 51 -31 48 -45 -19 -74 -72 -31 -168 -37 -248 -15 -113 31
-147 31 -180 0 -18 -17 -31 -43 -35 -69 -10 -55 -11 -56 -48 -44 -55 19 -102
56 -132 104 -16 25 -44 59 -63 76 -33 28 -39 30 -101 26 -77 -5 -175 -44 -328
-132 -54 -30 -124 -64 -156 -75 -56 -19 -147 -75 -147 -89 0 -5 -21 -18 -47
-31 -52 -25 -159 -38 -183 -22 -11 8 -14 44 -15 188 l0 179 -133 146 c-153
168 -195 202 -359 294 -65 36 -124 72 -132 79 -22 22 -7 41 66 83 79 47 110
77 122 120 16 54 -4 97 -85 181 -41 43 -74 83 -74 89 0 6 12 13 27 16 139 26
148 29 175 56 32 33 36 73 11 110 -9 14 -47 57 -85 97 -89 93 -89 108 1 139
125 43 193 115 232 247 27 95 37 102 102 71 96 -44 142 -32 243 67 40 38 80
69 90 69 10 0 37 -9 61 -21z"/>
<path d="M1100 1200 l0 -330 25 0 25 0 0 293 1 292 70 -195 c39 -107 80 -222
92 -255 19 -50 26 -60 48 -63 26 -3 28 2 108 225 45 125 86 237 91 248 5 12 9
-86 9 -262 l1 -283 25 0 25 0 0 331 0 330 -37 -3 -37 -3 -92 -259 -91 -258
-51 143 c-27 79 -69 197 -92 262 l-42 117 -39 0 -39 0 0 -330z"/>
</g>
</svg>
